# xmcd
#
# Track frame offsets:
# 182
# 17562
# 31380
# 49600
# 61745
# 74060
# 95982
# 125680
# 139227
# 163122
# 178445
# 190472
# 199760
# 217307
# 233005
#
# Disc length: 3347 seconds
#
#
# Revision: 0
# Processed by: cddbd v1.5.2PL0 Copyright (c) Steve Scherf et al.
# Submitted via: Nero 7, 11, 10, 0 
#
DISCID=ef0d110f
DTITLE=The Doug Roysden Band - Don't Push Me
DYEAR=1993
DGENRE=Blues
TTITLE0=Don't Push Me
TTITLE1=I May Be Down, But I Ain't Dead Yet
TTITLE2=Heart Of Stone
TTITLE3=Fire
TTITLE4=The Want-Ad Boogie
TTITLE5=Voodoo Love
TTITLE6=Heaven Shed A Tear
TTITLE7=My Baby Treats Me Bad
TTITLE8=A Dreamer's Blues
TTITLE9=In Every Love Gone Bad
TTITLE10=Dirty Shame
TTITLE11=Small Change
TTITLE12=Got To Move
TTITLE13=The Tribute Song
TTITLE14=Soap Box Woman
EXTD=
EXTT0=Don't Push Me
EXTT1=I May Be Down, But I Ain't Dead Yet
EXTT2=Heart Of Stone
EXTT3=Fire
EXTT4=The Want-Ad Boogie
EXTT5=Voodoo Love
EXTT6=Heaven Shed A Tear
EXTT7=My Baby Treats Me Bad
EXTT8=A Dreamer's Blues
EXTT9=In Every Love Gone Bad
EXTT10=Dirty Shame
EXTT11=Small Change
EXTT12=Got To Move
EXTT13=The Tribute Song
EXTT14=Soap Box Woman
PLAYORDER=
